<svg xmlns="http://www.w3.org/2000/svg" width="584.309" height="580.608" viewBox="0 0 584.309 580.608">
  <g id="bug" transform="translate(692.065 343.788) rotate(137)">
    <g id="Group_200" data-name="Group 200">
      <path id="Path_133" data-name="Path 133" d="M59.826,499.161,31.195,490.07l26.8-84.389,77.491-30.43,10.981,27.962-64.172,25.2Z" fill="#333"/>
      <path id="Path_134" data-name="Path 134" d="M119.726,242.272,57.991,218.03l-26.8-84.389,28.631-9.092L82.291,195.3l48.415,19.012Z" fill="#333"/>
      <path id="Path_135" data-name="Path 135" d="M21.485,365.75,0,344.755l59.1-60.474h66.117V314.32H71.745Z" fill="#333"/>
    </g>
    <g id="Group_201" data-name="Group 201">
      <path id="Path_136" data-name="Path 136" d="M452.174,499.161l-22.465-70.75-64.171-25.2,10.98-27.962,77.492,30.43L480.8,490.07Z" fill="#1a1a1a"/>
      <path id="Path_137" data-name="Path 137" d="M392.274,242.272l-10.98-27.961L429.71,195.3l22.464-70.75,28.632,9.092-26.8,84.389Z" fill="#1a1a1a"/>
      <path id="Path_138" data-name="Path 138" d="M490.515,365.75l-50.26-51.43h-53.47V284.281H452.9L512,344.755Z" fill="#1a1a1a"/>
    </g>
    <path id="Path_139" data-name="Path 139" d="M232.424,82.3h-30.04V60.363A17.5,17.5,0,0,0,184.9,42.879V12.839a47.578,47.578,0,0,1,47.524,47.524V82.3Z" fill="#333"/>
    <path id="Path_140" data-name="Path 140" d="M309.617,82.3h-30.04V60.363A47.578,47.578,0,0,1,327.1,12.839v30.04a17.5,17.5,0,0,0-17.484,17.484V82.3Z" fill="#1a1a1a"/>
    <path id="Path_141" data-name="Path 141" d="M256,470.049h0A139.156,139.156,0,0,1,116.844,330.894V191.739H395.155V330.9A139.154,139.154,0,0,1,256,470.049Z" fill="#6e778d"/>
    <path id="Path_142" data-name="Path 142" d="M256,470.049h0V191.738H395.155V330.894A139.154,139.154,0,0,1,256,470.049Z" fill="#374056"/>
    <path id="Path_143" data-name="Path 143" d="M256,60.495h0a98.26,98.26,0,0,0-98.26,98.26V213.37H354.261V158.755A98.261,98.261,0,0,0,256,60.495Z" fill="#4d4d4d"/>
    <path id="Path_144" data-name="Path 144" d="M256,60.495h0V213.37h98.261V158.755A98.261,98.261,0,0,0,256,60.495Z" fill="#333"/>
    <path id="Path_145" data-name="Path 145" d="M395.156,191.739H116.845L256,304.585Z" fill="#374056"/>
    <path id="Path_146" data-name="Path 146" d="M395.156,191.739H256V304.585Z" fill="#1a2133"/>
  </g>
</svg>
