<?xml version="1.0"?>
<svg xmlns="http://www.w3.org/2000/svg" xmlns:xlink="http://www.w3.org/1999/xlink" xmlns:svgjs="http://svgjs.com/svgjs" version="1.1" width="512" height="512" x="0" y="0" viewBox="0 0 512 512" style="enable-background:new 0 0 512 512" xml:space="preserve" class=""><g>
<g xmlns="http://www.w3.org/2000/svg">
	<g>
		<path d="M201.532,0H119.83C53.755,0,0,53.755,0,119.83v81.702c0,21.379,16.749,38.128,38.128,38.128h163.404    c21.379,0,38.128-16.749,38.128-38.128V38.128C239.66,16.749,222.911,0,201.532,0z M217.872,201.532    c0,9.162-7.179,16.34-16.34,16.34H38.128c-9.162,0-16.34-7.179-16.34-16.34V119.83c0-54.06,43.983-98.043,98.043-98.043h81.702    c9.162,0,16.34,7.179,16.34,16.34V201.532z" fill="#f2f2f2" data-original="#000000" style="" class=""/>
	</g>
</g>
<g xmlns="http://www.w3.org/2000/svg">
	<g>
		<path d="M392.17,0h-81.702c-21.379,0-38.128,16.749-38.128,38.128v163.404c0,21.379,16.749,38.128,38.128,38.128h163.404    c21.379,0,38.128-16.749,38.128-38.128V119.83C512,53.755,458.245,0,392.17,0z M490.213,201.532c0,9.162-7.173,16.34-16.34,16.34    H310.468c-9.167,0-16.34-7.179-16.34-16.34V38.128c0-9.162,7.173-16.34,16.34-16.34h81.702c54.06,0,98.043,43.983,98.043,98.043    V201.532z" fill="#f2f2f2" data-original="#000000" style="" class=""/>
	</g>
</g>
<g xmlns="http://www.w3.org/2000/svg">
	<g>
		<path d="M473.872,272.34H310.468c-21.379,0-38.128,16.749-38.128,38.128v190.638c0,6.013,4.88,10.894,10.894,10.894H392.17    C458.245,512,512,458.245,512,392.17v-81.702C512,289.089,495.251,272.34,473.872,272.34z M490.213,392.17    c0,54.06-43.983,98.043-98.043,98.043h-98.043V310.468c0-9.167,7.173-16.34,16.34-16.34h163.404c9.167,0,16.34,7.173,16.34,16.34    V392.17z" fill="#f2f2f2" data-original="#000000" style="" class=""/>
	</g>
</g>
<g xmlns="http://www.w3.org/2000/svg">
	<g>
		<path d="M201.532,272.34H38.128C16.749,272.34,0,289.089,0,310.468v81.702C0,458.245,53.755,512,119.83,512h108.936    c6.013,0,10.894-4.88,10.894-10.894V310.468C239.66,289.089,222.911,272.34,201.532,272.34z M217.872,490.213H119.83    c-54.06,0-98.043-43.983-98.043-98.043v-81.702c0-9.167,7.179-16.34,16.34-16.34h163.404c9.162,0,16.34,7.173,16.34,16.34V490.213    z" fill="#f2f2f2" data-original="#000000" style="" class=""/>
	</g>
</g>
<g xmlns="http://www.w3.org/2000/svg">
</g>
<g xmlns="http://www.w3.org/2000/svg">
</g>
<g xmlns="http://www.w3.org/2000/svg">
</g>
<g xmlns="http://www.w3.org/2000/svg">
</g>
<g xmlns="http://www.w3.org/2000/svg">
</g>
<g xmlns="http://www.w3.org/2000/svg">
</g>
<g xmlns="http://www.w3.org/2000/svg">
</g>
<g xmlns="http://www.w3.org/2000/svg">
</g>
<g xmlns="http://www.w3.org/2000/svg">
</g>
<g xmlns="http://www.w3.org/2000/svg">
</g>
<g xmlns="http://www.w3.org/2000/svg">
</g>
<g xmlns="http://www.w3.org/2000/svg">
</g>
<g xmlns="http://www.w3.org/2000/svg">
</g>
<g xmlns="http://www.w3.org/2000/svg">
</g>
<g xmlns="http://www.w3.org/2000/svg">
</g>
</g></svg>
